<?xml version="1.0" standalone="no"?>
<svg xmlns:xlink="http://www.w3.org/1999/xlink" id="wave" style="transform:rotate(180deg); transition: 0.3s" viewBox="0 0 1440 100" version="1.1" xmlns="http://www.w3.org/2000/svg"><defs><linearGradient id="sw-gradient-0" x1="0" x2="0" y1="1" y2="0"><stop stop-color="rgba(255, 249, 234, 1)" offset="0%"/><stop stop-color="rgba(233, 162, 9, 1)" offset="100%"/></linearGradient></defs><path style="transform:translate(0, 0px); opacity:1" fill="url(#sw-gradient-0)" d="M0,40L72,90L144,70L216,90L288,40L360,60L432,30L504,60L576,30L648,80L720,40L792,0L864,30L936,10L1008,90L1080,30L1152,90L1224,80L1296,60L1368,80L1440,40L1512,40L1584,30L1656,50L1728,20L1728,100L1656,100L1584,100L1512,100L1440,100L1368,100L1296,100L1224,100L1152,100L1080,100L1008,100L936,100L864,100L792,100L720,100L648,100L576,100L504,100L432,100L360,100L288,100L216,100L144,100L72,100L0,100Z"/></svg>