<?xml version="1.0" standalone="no"?>
<svg xmlns:xlink="http://www.w3.org/1999/xlink" id="wave" style="transform:rotate(180deg); transition: 0.3s" viewBox="0 0 1440 100" version="1.1" xmlns="http://www.w3.org/2000/svg"><defs><linearGradient id="sw-gradient-0" x1="0" x2="0" y1="1" y2="0"><stop stop-color="rgba(255, 249, 234, 1)" offset="0%"/><stop stop-color="rgba(233, 162, 9, 1)" offset="100%"/></linearGradient></defs><path style="transform:translate(0, 0px); opacity:1" fill="url(#sw-gradient-0)" d="M0,40L12,40C24,40,48,40,72,35C96,30,120,20,144,16.7C168,13,192,17,216,26.7C240,37,264,53,288,60C312,67,336,63,360,51.7C384,40,408,20,432,16.7C456,13,480,27,504,31.7C528,37,552,33,576,41.7C600,50,624,70,648,73.3C672,77,696,63,720,63.3C744,63,768,77,792,68.3C816,60,840,30,864,25C888,20,912,40,936,50C960,60,984,60,1008,56.7C1032,53,1056,47,1080,46.7C1104,47,1128,53,1152,61.7C1176,70,1200,80,1224,76.7C1248,73,1272,57,1296,50C1320,43,1344,47,1368,45C1392,43,1416,37,1440,43.3C1464,50,1488,70,1512,73.3C1536,77,1560,63,1584,60C1608,57,1632,63,1656,60C1680,57,1704,43,1716,36.7L1728,30L1728,100L1716,100C1704,100,1680,100,1656,100C1632,100,1608,100,1584,100C1560,100,1536,100,1512,100C1488,100,1464,100,1440,100C1416,100,1392,100,1368,100C1344,100,1320,100,1296,100C1272,100,1248,100,1224,100C1200,100,1176,100,1152,100C1128,100,1104,100,1080,100C1056,100,1032,100,1008,100C984,100,960,100,936,100C912,100,888,100,864,100C840,100,816,100,792,100C768,100,744,100,720,100C696,100,672,100,648,100C624,100,600,100,576,100C552,100,528,100,504,100C480,100,456,100,432,100C408,100,384,100,360,100C336,100,312,100,288,100C264,100,240,100,216,100C192,100,168,100,144,100C120,100,96,100,72,100C48,100,24,100,12,100L0,100Z"/></svg>